<svg viewBox="0 0 99.65 98.91" xmlns="http://www.w3.org/2000/svg"><g fill="none" stroke="#005ebc" stroke-linejoin="round" stroke-width="3"><path d="m29.6 20.06v-4.64h-6.23v4.64c0 20.11 21.81 21.66 26.48 29.39"/><path d="m91.92 20.06v-4.64h6.23v4.64c0 20.11-21.81 21.66-26.49 29.39"/><path d="m60.76 10.78 3.11 7.74h7.79l-6.23 4.64 3.12 7.73-7.79-4.64-7.79 4.64 3.12-7.73-6.24-4.64h7.79z"/><path d="m68.55 78.84h3.11a4.64 4.64 0 1 0 0-9.28"/><path d="m74.78 69.56h-6.23"/><path d="m74.78 60.28a4.64 4.64 0 1 1 0 9.28"/><path d="m18.69 81.94h-3.11"/><path d="m7.79 88.12h-7.79"/><path d="m7.79 54.09h-7.79"/><path d="m37.39 46.36-7.79 7.73h-6.23"/><path d="m74.78 60.28h-6.23"/><path d="m74.78 94.31a3.11 3.11 0 0 1 -3.12 3.1h-21.81a3.1 3.1 0 0 1 -3.11-3.1v-3.09a3.1 3.1 0 0 1 3.11-3.1h21.81a3.11 3.11 0 0 1 3.12 3.1z"/><path d="m53 51a36 36 0 0 1 -17.17-30.94c0-12.37 3.17-18.56 3.17-18.56h43.57s3.12 6.19 3.12 17c0 23.22-17.14 32.5-17.14 32.5"/><path d="m7.79 54.09h15.58v34.03h-15.58z"/><path d="m48.29 51h23.37a4.64 4.64 0 1 1 0 9.28"/><path d="m28 85h4.67l6.33 3.12h31.11a4.64 4.64 0 1 0 0-9.28"/></g></svg>