<?xml version="1.0" encoding="UTF-8"?>
<svg width="175px" height="50px" viewBox="0 0 175 50" version="1.1" xmlns="http://www.w3.org/2000/svg" xmlns:xlink="http://www.w3.org/1999/xlink">
    <!-- Generator: sketchtool 50.2 (55047) - http://www.bohemiancoding.com/sketch -->
    <title>E91A4D66-931E-4062-A4EA-332C06109257</title>
    <desc>Created with sketchtool.</desc>
    <defs></defs>
    <g id="Page-1" stroke="none" stroke-width="1" fill="none" fill-rule="evenodd">
        <g id="Create-New-Password-confirmation-screen" transform="translate(-188.000000, -510.000000)" fill-rule="nonzero">
            <g id="Emprising-logo" transform="translate(188.000000, 510.000000)">
                <g id="Group" transform="translate(0.000000, 20.357143)" fill="#002171">
                    <path d="M11.1003571,17.3182143 C13.5107143,17.3182143 15.3185714,16.2335714 16.2832143,14.8278571 L19.8582143,16.9167857 C18.0103571,19.6485714 14.9971429,21.2960714 11.06,21.2960714 C4.43107143,21.2960714 0.131428571,16.7560714 0.131428571,10.7296429 C0.131428571,4.78392857 4.42964286,0.163571429 10.7385714,0.163571429 C16.7246429,0.163571429 20.8225,4.985 20.8225,10.7707143 C20.8104663,11.3763067 20.756768,11.980353 20.6617857,12.5785714 L4.67214286,12.5785714 C5.35714286,15.7114286 7.88607143,17.3182143 11.1003571,17.3182143 Z M16.4435714,9.0425 C15.8407143,5.58714286 13.31,4.10071429 10.6985714,4.10071429 C7.44428571,4.10071429 5.23428571,6.02928571 4.63214286,9.0425 L16.4435714,9.0425 Z" id="Shape"></path>
                    <path d="M53.5821429,8.31928571 L53.5821429,20.7735714 L49.2435714,20.7735714 L49.2435714,8.60035714 C49.2435714,5.78785714 47.7167857,4.22142857 45.3464286,4.22142857 C42.775,4.22142857 40.9671429,5.86857143 40.9671429,9.52464286 L40.9671429,20.7746429 L36.6285714,20.7746429 L36.6285714,8.60035714 C36.6285714,5.78785714 35.2221429,4.22142857 32.8517857,4.22142857 C30.4010714,4.22142857 28.3925,5.86857143 28.3925,9.52464286 L28.3925,20.7746429 L24.0535714,20.7746429 L24.0535714,0.686071429 L28.3928571,0.686071429 L28.3928571,3.09642857 C29.6785714,1.1275 31.6467857,0.163571429 34.1378571,0.163571429 C36.7496429,0.163571429 38.6778571,1.32892857 39.8425,3.33714286 C41.1689286,1.24821429 43.2978571,0.163571429 45.9896429,0.163571429 C50.5289286,0.163571429 53.5821429,3.2975 53.5821429,8.31928571 Z" id="Shape"></path>
                    <path d="M78.4128571,10.7296429 C78.4128571,16.7157143 73.8728571,21.2960714 68.4089286,21.2960714 C65.2753571,21.2960714 62.905,20.0103571 61.3785714,17.9210714 L61.3785714,28.8085714 L57.0392857,28.8085714 L57.0392857,0.686071429 L61.3785714,0.686071429 L61.3785714,3.57892857 C62.905,1.45 65.2753571,0.164285714 68.4089286,0.164285714 C73.8728571,0.163571429 78.4128571,4.78571429 78.4128571,10.7296429 Z M74.0735714,10.7296429 C74.0735714,6.99357143 71.3421429,4.30107143 67.7260714,4.30107143 C64.11,4.30107143 61.3785714,6.99285714 61.3785714,10.7296429 C61.3785714,14.4664286 64.1107143,17.1582143 67.7260714,17.1582143 C71.3414286,17.1582143 74.0735714,14.4664286 74.0735714,10.7296429 Z" id="Shape"></path>
                    <path d="M91.7539286,0.324285714 L91.7539286,5.025 C88.9017857,4.82392857 85.5671429,6.14964286 85.5671429,10.6496429 L85.5671429,20.7735714 L81.2278571,20.7735714 L81.2278571,0.686071429 L85.5671429,0.686071429 L85.5671429,4.06035714 C86.7721429,1.32892857 89.2228571,0.324285714 91.7539286,0.324285714 Z" id="Shape"></path>
                    <polygon id="Shape" points="95.6517857 0.686071429 99.9907143 0.686071429 99.9907143 20.7735714 95.6517857 20.7735714"></polygon>
                    <path d="M119.756786,15.1071429 C119.756786,19.1246429 116.261786,21.2946429 111.9225,21.2946429 C107.905,21.2946429 105.0125,19.4864286 103.726786,16.5939286 L107.463214,14.4246429 C108.106071,16.2321429 109.713214,17.3175 111.9225,17.3175 C113.851071,17.3175 115.3375,16.6746429 115.3375,15.0675 C115.3375,11.4917857 104.530714,13.5003571 104.530714,6.30892857 C104.530714,2.5325 107.784643,0.162142857 111.8825,0.162142857 C115.177143,0.162142857 117.908571,1.68892857 119.315,4.34071429 L115.658929,6.38964286 C114.936071,4.82285714 113.529643,4.09964286 111.8825,4.09964286 C110.315357,4.09964286 108.949286,4.78285714 108.949286,6.22928571 C108.949286,9.88607143 119.756786,7.67642857 119.756786,15.1071429 Z" id="Shape"></path>
                    <polygon id="Shape" points="123.695 0.686071429 128.035714 0.686071429 128.035714 20.7735714 123.695 20.7735714"></polygon>
                    <path d="M151.496071,8.44 L151.496071,20.7735714 L147.157143,20.7735714 L147.157143,8.88071429 C147.157143,5.82714286 145.389643,4.22035714 142.657143,4.22035714 C139.805,4.22035714 137.555,5.9075 137.555,10.0060714 L137.555,20.7728571 L133.216429,20.7728571 L133.216429,0.686071429 L137.555357,0.686071429 L137.555357,3.2575 C138.881071,1.16821429 141.050357,0.163928571 143.7825,0.163928571 C148.282143,0.163571429 151.496071,3.21678571 151.496071,8.44 Z" id="Shape"></path>
                    <path d="M175,0.686071429 L175,19.8496429 C175,26.3178571 169.937857,29.3307143 164.674643,29.3307143 C160.255357,29.3307143 156.840714,27.6839286 155.153571,24.4696429 L158.89,22.3003571 C159.773571,24.0275 161.26,25.3935714 164.755357,25.3935714 C168.491429,25.3935714 170.741429,23.3446429 170.741429,19.8496429 L170.741429,17.3989286 C169.214643,19.5682143 166.844643,20.8939286 163.751071,20.8939286 C158.086071,20.8939286 153.627143,16.2739286 153.627143,10.5289286 C153.627143,4.78392857 158.086071,0.163571429 163.75,0.163571429 C166.843571,0.163571429 169.214286,1.48964286 170.740357,3.65892857 L170.740357,0.686071429 L175,0.686071429 Z M170.741429,10.5289286 C170.741429,6.91285714 168.009643,4.22142857 164.353571,4.22142857 C160.6975,4.22142857 157.964286,6.91285714 157.964286,10.5289286 C157.964286,14.145 160.696429,16.8364286 164.352143,16.8364286 C168.007857,16.8364286 170.741429,14.1446429 170.741429,10.5289286 Z" id="Shape"></path>
                </g>
                <g id="Group" transform="translate(95.357143, 0.000000)">
                    <circle id="Oval" fill="#002171" cx="2.54214286" cy="15.8389286" r="2.49964286"></circle>
                    <circle id="Oval" fill="#03C2FC" cx="9.54571429" cy="15.8389286" r="2.49964286"></circle>
                    <circle id="Oval" fill="#1288C3" cx="16.5492857" cy="15.8389286" r="2.49964286"></circle>
                    <circle id="Oval" fill="#03C2FC" cx="23.5528571" cy="15.8389286" r="2.49964286"></circle>
                    <circle id="Oval" fill="#002171" cx="30.5564286" cy="15.8389286" r="2.49964286"></circle>
                    <circle id="Oval" fill="#03C2FC" cx="9.54571429" cy="9.29535714" r="2.49964286"></circle>
                    <circle id="Oval" fill="#1288C3" cx="16.5492857" cy="9.29535714" r="2.49964286"></circle>
                    <circle id="Oval" fill="#03C2FC" cx="23.5528571" cy="9.29535714" r="2.49964286"></circle>
                    <circle id="Oval" fill="#1288C3" cx="16.5492857" cy="2.75178571" r="2.49964286"></circle>
                </g>
            </g>
        </g>
    </g>
</svg>